<?xml version="1.0" standalone="no"?>
<svg viewBox="0 0 200 200" xmlns="http://www.w3.org/2000/svg">
  <path fill="#A7F0BA" d="M42.1,-74C54.9,-65.6,65.6,-54.9,74.9,-42.1C84.2,-29.4,92.1,-14.7,93.4,0.8C94.8,16.3,89.7,32.5,80.8,46.1C72,59.6,59.4,70.3,45.3,78.7C31.2,87.1,15.6,93.2,0.1,93.1C-15.4,92.9,-30.8,86.4,-44.3,77.7C-57.9,69,-69.5,57.9,-78.1,44.6C-86.7,31.3,-92.2,15.6,-92.1,0.1C-92,-15.5,-86.2,-31,-78,-44.9C-69.7,-58.9,-59.1,-71.3,-45.7,-79.3C-32.2,-87.2,-16.1,-90.7,-0.7,-89.4C14.7,-88.2,29.4,-82.3,42.1,-74Z" transform="translate(100 100)" />
</svg>
